<svg width="51" height="51" fill="none" xmlns="http://www.w3.org/2000/svg"><ellipse cx="25.469" cy="25.346" rx="25.279" ry="25" fill="#EB5E40"/><g clip-path="url(#a)" fill="#fff"><path d="M14.969 24.392V26.3a1.75 1.75 0 0 1-3.5 0v-1.91a1.75 1.75 0 1 1 3.5 0Zm21.001.05-.001-.05a1.75 1.75 0 1 1 3.499.05v1.909a1.75 1.75 0 0 1-3.499 0v-1.91ZM21.014 30.12v1.908a1.75 1.75 0 1 1-3.5 0V30.12a1.75 1.75 0 0 1 3.5 0Zm0-11.456v6.245a1.75 1.75 0 0 1-3.5 0v-6.244a1.75 1.75 0 1 1 3.5 0Zm8.909 1.91a1.75 1.75 0 1 0 3.5 0v-1.91a1.75 1.75 0 1 0-3.5 0v1.91Zm-6.204-5.569a1.75 1.75 0 0 0 3.5 0v-1.909a1.75 1.75 0 0 0-3.5 0v1.91Zm0 20.682a1.75 1.75 0 1 1 3.5 0v1.91a1.75 1.75 0 0 1-3.5 0v-1.91Zm6.204-9.864a1.75 1.75 0 0 1 3.5 0v6.205a1.75 1.75 0 1 1-3.5 0v-6.204Zm-2.704-5.568v10.182a1.75 1.75 0 0 1-3.5 0V20.255a1.75 1.75 0 1 1 3.5 0Z"/></g><defs><clipPath id="a"><path fill="#fff" transform="translate(11.469 11.346)" d="M0 0h28v28H0z"/></clipPath></defs></svg>