<svg width="580" height="43" fill="none" xmlns="http://www.w3.org/2000/svg"><mask id="a" fill="#fff"><path d="M.832.13h578.336V42.7H.832V.13Z"/></mask><path d="M.832.13v-1h-1v1h1Zm578.336 0h1v-1h-1v1Zm0 42.57v1h1v-1h-1ZM.832 42.7h-1v1h1v-1Zm0-41.57h578.336v-2H.832v2Zm577.336-1V42.7h2V.13h-2Zm1 41.57H.832v2h578.336v-2Zm-577.336 1V.13h-2V42.7h2Z" fill="#fff" mask="url(#a)"/><path d="M.832.13H374.96V42.7H.832V.13Z" fill="#fff"/><path d="M155.893 28.627h6.63v-1.68h-4.875v-8.97h-1.755v10.65Zm17.982-5.325a5.48 5.48 0 0 0-5.505-5.505 5.47 5.47 0 0 0-5.505 5.505 5.47 5.47 0 0 0 5.505 5.505 5.48 5.48 0 0 0 5.505-5.505Zm-9.24 0c0-2.115 1.62-3.81 3.735-3.81 2.1 0 3.72 1.695 3.72 3.81s-1.62 3.81-3.72 3.81c-2.115 0-3.735-1.695-3.735-3.81Zm9.54 5.325h1.815l1.2-2.79h4.77l1.215 2.79h1.83l-4.65-10.65h-1.53l-4.65 10.65Zm3.69-4.35 1.71-3.945 1.71 3.945h-3.42Zm8.512 4.35h3.27c3.165 0 5.58-2.31 5.58-5.325s-2.415-5.325-5.58-5.325h-3.27v10.65Zm1.755-1.635v-7.38h1.515c2.28 0 3.795 1.605 3.795 3.69s-1.515 3.69-3.795 3.69h-1.515Zm9.026 1.635h1.755v-10.65h-1.755v10.65Zm13.65 0v-10.65h-1.77v7.635l-5.985-7.635h-1.53v10.65h1.755v-7.665l6 7.665h1.53Zm1.935-5.325c0 3.105 2.385 5.505 5.565 5.505 3.135 0 5.685-2.28 5.295-6.405h-5.445v1.65h3.645c-.225 1.815-1.515 3.06-3.495 3.06-2.235 0-3.795-1.665-3.795-3.81s1.56-3.81 3.78-3.81c1.335 0 2.49.66 3.045 1.635h1.995c-.66-1.875-2.655-3.33-5.04-3.33-3.165 0-5.55 2.4-5.55 5.505Zm14.813 4.14c0-.705-.585-1.305-1.305-1.305-.705 0-1.29.6-1.29 1.305 0 .72.585 1.305 1.29 1.305.72 0 1.305-.585 1.305-1.305Zm3.97 0c0-.705-.585-1.305-1.305-1.305-.705 0-1.29.6-1.29 1.305 0 .72.585 1.305 1.29 1.305.72 0 1.305-.585 1.305-1.305Zm3.969 0c0-.705-.585-1.305-1.305-1.305-.705 0-1.29.6-1.29 1.305 0 .72.585 1.305 1.29 1.305.72 0 1.305-.585 1.305-1.305Z" fill="#FB5021"/><path fill="#fff" d="M395.634 2.045h14.901v38.942h-14.901zm29.804 0h14.901v38.942h-14.901zm59.595 0h14.901v38.942h-14.901zm59.607 0h14.901v38.942H544.64zm-89.411 0h14.901v38.942h-14.901zm59.607 0h14.901v38.942h-14.901z"/></svg>