<svg width="52" height="51" fill="none" xmlns="http://www.w3.org/2000/svg"><ellipse cx="25.912" cy="25.346" rx="25.279" ry="25" fill="#EB5E40"/><g clip-path="url(#a)"><path d="M8.85 22.945c-.082 0-.149.065-.16.155l-.375 3.424.376 3.348c.01.088.077.154.159.154.08 0 .145-.064.158-.154l.426-3.348-.426-3.425c-.013-.09-.078-.154-.158-.154Zm-1.41 1.312c-.08 0-.143.06-.153.148l-.28 2.119.28 2.08c.01.088.073.15.153.15.077 0 .14-.062.153-.15l.329-2.08-.33-2.119c-.012-.087-.075-.148-.152-.148Zm2.907-1.984c-.1 0-.181.079-.191.188L9.8 26.524l.356 3.913c.01.109.09.187.19.187s.18-.078.193-.186l.403-3.914-.403-4.063c-.013-.109-.094-.188-.192-.188Zm1.51-.142c-.119 0-.214.094-.223.22l-.337 4.173.337 4.038c.008.125.104.22.223.22.118 0 .213-.095.224-.22l.382-4.038-.382-4.175a.23.23 0 0 0-.224-.218Zm1.777.52a.259.259 0 0 0-.254-.251.26.26 0 0 0-.257.253l-.317 3.87.317 4.072a.26.26 0 0 0 .257.254.26.26 0 0 0 .254-.254l.362-4.071-.362-3.874Zm1.28-2.71a.294.294 0 0 0-.288.286l-.298 6.3.298 4.07a.294.294 0 0 0 .289.285c.151 0 .278-.127.288-.287v.002l.336-4.07-.336-6.301a.297.297 0 0 0-.288-.285Zm1.524-1.452a.327.327 0 0 0-.322.319l-.278 7.74.278 4.046a.326.326 0 0 0 .322.317c.17 0 .313-.141.32-.319v.002l.316-4.045-.316-7.741a.328.328 0 0 0-.32-.32Zm1.583-.7a.357.357 0 0 0-.354.353l-.26 8.386.26 4.003c.005.195.161.35.354.35a.358.358 0 0 0 .352-.351v.003l.293-4.005-.293-8.386a.358.358 0 0 0-.352-.352Zm1.957.07a.39.39 0 0 0-.386-.384.387.387 0 0 0-.386.385l-.242 8.668.242 3.98a.387.387 0 0 0 .386.382.39.39 0 0 0 .386-.384l.27-3.977-.27-8.67Zm0 12.646v.003-.003Zm1.197-12.84a.42.42 0 0 0-.418.416l-.222 8.447.222 3.942a.42.42 0 0 0 .418.416.423.423 0 0 0 .42-.418v.004l.247-3.944-.248-8.447a.423.423 0 0 0-.42-.416Zm1.596.276a.453.453 0 0 0-.452.45l-.2 8.138.201 3.916a.45.45 0 0 0 .902-.003v.004l.227-3.916-.227-8.14a.452.452 0 0 0-.451-.449Zm1.875-1.497a.484.484 0 0 0-.528-.003.488.488 0 0 0-.222.403l-.003.092-.18 9.592.183 3.892v.016c.006.11.046.21.114.289a.481.481 0 0 0 .37.176.495.495 0 0 0 .483-.482l.02-.386.184-3.504-.204-9.685a.496.496 0 0 0-.217-.4Zm.217 13.977v-.002.002-.003.003Zm1.38-14.894a.504.504 0 0 0-.588.044.52.52 0 0 0-.19.396l-.002.053-.21 10.511.107 1.943.105 1.891a.52.52 0 0 0 .515.512.522.522 0 0 0 .517-.516v.004l.229-3.834-.229-10.564a.524.524 0 0 0-.254-.44Zm14.201 6.004a4.68 4.68 0 0 0-1.814.364c-.373-4.226-3.917-7.54-8.239-7.54a8.382 8.382 0 0 0-3 .559c-.355.137-.448.278-.452.552v14.883c.004.287.227.51.506.538h13c2.59 0 4.689-2.075 4.689-4.666a4.69 4.69 0 0 0-4.69-4.69ZM10.751 33.708c-.549-.129-.697-.2-.697-.416 0-.153.124-.312.495-.312.317 0 .565.128.788.358l.5-.485a1.66 1.66 0 0 0-1.263-.547c-.683 0-1.238.388-1.238 1.017 0 .683.446.886 1.085 1.033.654.149.772.25.772.472 0 .262-.194.377-.605.377a1.12 1.12 0 0 1-.886-.397l-.5.446c.262.386.768.629 1.347.629.945 0 1.363-.445 1.363-1.104 0-.755-.61-.94-1.16-1.07Zm3.19-1.402c-.944 0-1.503.734-1.503 1.789 0 1.056.559 1.788 1.504 1.788.946 0 1.505-.732 1.505-1.788 0-1.055-.559-1.789-1.505-1.789Zm0 2.89c-.558 0-.791-.482-.791-1.101s.233-1.1.792-1.1c.56 0 .793.481.793 1.1 0 .618-.232 1.1-.793 1.1Zm4.305-.887c0 .553-.272.896-.712.896-.44 0-.709-.352-.709-.907v-1.937h-.693v1.947c0 1.01.565 1.575 1.402 1.575.881 0 1.406-.58 1.406-1.585v-1.937h-.693v1.948Zm3.686-.48c0 .191.008.628.008.756-.043-.089-.157-.262-.241-.391l-1.23-1.832h-.664v3.467h.685v-1.526c0-.193-.01-.63-.01-.757.045.089.158.262.241.392l1.275 1.891h.619v-3.467h-.683v1.466Zm2.659-1.467h-1.083v3.467h1.033c.892 0 1.774-.516 1.774-1.735 0-1.268-.734-1.732-1.724-1.732Zm-.05 2.793H24.2v-2.119h.368c.732 0 1.035.35 1.035 1.059 0 .634-.334 1.06-1.062 1.06Zm3.919-2.16c.311 0 .51.14.635.376l.642-.296c-.218-.451-.613-.769-1.267-.769-.907 0-1.54.734-1.54 1.788 0 1.096.608 1.789 1.515 1.789.63 0 1.044-.291 1.284-.784l-.586-.346c-.184.307-.366.443-.679.443-.52 0-.823-.478-.823-1.102 0-.643.3-1.099.819-1.099Zm2.572-.633h-.694v3.467h2.085v-.683h-1.392V32.36Zm3.216-.056c-.945 0-1.506.734-1.506 1.789 0 1.056.561 1.788 1.506 1.788.947 0 1.507-.732 1.507-1.788 0-1.055-.56-1.789-1.507-1.789Zm0 2.89c-.559 0-.792-.482-.792-1.101s.233-1.1.792-1.1c.56 0 .793.481.793 1.1 0 .618-.232 1.1-.793 1.1Zm4.305-.887c0 .553-.271.896-.712.896-.441 0-.71-.352-.71-.907v-1.937h-.692v1.947c0 1.01.564 1.575 1.402 1.575.881 0 1.407-.58 1.407-1.585v-1.937h-.695v1.948Zm2.646-1.947h-1.085v3.467h1.033c.894 0 1.774-.516 1.774-1.735 0-1.268-.73-1.732-1.722-1.732Zm-.052 2.793h-.34v-2.119h.366c.733 0 1.034.35 1.034 1.059 0 .634-.33 1.06-1.06 1.06Z" fill="#fff"/></g><defs><clipPath id="a"><path fill="#fff" transform="translate(6.69 14.351)" d="M0 0h38.444v21.99H0z"/></clipPath></defs></svg>