<svg width="51" height="51" fill="none" xmlns="http://www.w3.org/2000/svg"><ellipse cx="25.29" cy="25.546" rx="25.279" ry="25" fill="#EB5E40"/><path d="M31.473 34.285H19.106c-4.286 0-7.8-3.475-7.8-7.713v-6.393c0-4.247 3.514-7.714 7.8-7.714h12.367c4.285 0 7.8 3.467 7.8 7.714v6.393c0 4.238-3.507 7.713-7.8 7.713Z" fill="#fff"/><path d="M28.061 34.183s5.291 4.46 5.468 4.445c.177-.024.177-.263.177-.485l-.048-4.74-5.597.78Z" fill="#fff"/><path d="M31.72 21.236H19.122a.24.24 0 0 1-.241-.239V17.11c0-.136.104-.239.241-.239h12.6a.24.24 0 0 1 .241.239v3.88a.247.247 0 0 1-.241.247Z" fill="#EB5E40"/><path d="M23.153 29.831V20.6c0-.135.105-.239.242-.239h4.149a.24.24 0 0 1 .241.239v9.232a.24.24 0 0 1-.241.239h-4.15a.24.24 0 0 1-.24-.239Z" fill="#EB5E40"/><path d="M22.266 21.236c.482-.064.932.374.892 1.24-.008.096.161-1.423.161-1.423l-.909.032-.144.15Zm6.224-.223.153.16c-.483-.064-.933.373-.893 1.24l-.314-.064.025-1.51 1.246.182v.096" fill="#EB5E40"/></svg>