<svg width="51" height="51" fill="none" xmlns="http://www.w3.org/2000/svg"><ellipse cx="25.616" cy="25.546" rx="25.279" ry="25" fill="#EB5E40"/><path d="M41.617 17.032c.23-.77 0-1.335-1.108-1.335h-3.667c-.934 0-1.363.486-1.593 1.028 0 0-1.868 4.5-4.507 7.418-.853.843-1.245 1.114-1.712 1.114-.23 0-.585-.27-.585-1.04v-7.185c0-.923-.262-1.335-1.034-1.335h-5.764c-.585 0-.934.43-.934.83 0 .875 1.32 1.078 1.457 3.54v5.344c0 1.17-.212 1.385-.679 1.385-1.244 0-4.27-4.518-6.063-9.69-.36-1.003-.716-1.41-1.655-1.41h-3.667c-1.046 0-1.257.487-1.257 1.029 0 .96 1.245 5.731 5.795 12.035 3.032 4.303 7.302 6.637 11.186 6.637 2.335 0 2.621-.518 2.621-1.41 0-4.113-.212-4.5.959-4.5.541 0 1.475.27 3.654 2.345 2.49 2.463 2.9 3.565 4.295 3.565h3.666c1.046 0 1.575-.518 1.27-1.54-.697-2.148-5.41-6.568-5.62-6.864-.542-.69-.387-.997 0-1.613.005-.006 4.481-6.236 4.942-8.348Z" fill="#fff"/></svg>