<svg width="51" height="51" fill="none" xmlns="http://www.w3.org/2000/svg"><ellipse cx="25.398" cy="25.346" rx="25.279" ry="25" fill="#EB5E40"/><path d="M15.919 12.547a16.1 16.1 0 0 1 8.034-3.04v4.784a10.989 10.989 0 0 0-5.18 2.088c-1.903 1.427-3.33 3.409-4.017 5.682a11.162 11.162 0 0 0 .159 6.95 11.023 11.023 0 0 0 4.281 5.497 11.21 11.21 0 0 0 6.713 1.877 11.066 11.066 0 0 0 6.5-2.485 11.045 11.045 0 0 0 3.727-5.867 11.29 11.29 0 0 0 .132-4.889l4.017-3.224v-.026a16.045 16.045 0 0 1 .476 9.329c-.846 3.303-2.696 6.236-5.338 8.377-2.643 2.14-5.894 3.41-9.277 3.568-3.382.159-6.765-.767-9.566-2.67a15.873 15.873 0 0 1-6.105-7.848 15.968 15.968 0 0 1-.238-9.937 15.66 15.66 0 0 1 5.682-8.166Z" fill="#fff"/><path d="m37.246 14.793.026.053-2.696 4.255a11.283 11.283 0 0 0-3.805-3.515v9.699a5.38 5.38 0 0 1-5.392 5.391 5.38 5.38 0 0 1-5.39-5.391 5.38 5.38 0 0 1 5.39-5.391c1.11 0 2.141.343 3.013.925v-11.1c3.489.687 6.58 2.51 8.854 5.074Z" fill="#fff"/></svg>