<svg width="323" height="94" fill="none" xmlns="http://www.w3.org/2000/svg"><path d="M.9 92.328h30c12.6 0 22-9.1 22-20.9 0-8-4.3-13.8-10.5-16.8 3.4-3 5.6-7.3 5.6-12.7 0-11.3-9.2-20.6-21.1-20.6H.9v71Zm14.5-41.9v-15.9h10.1c5 0 8.4 3.7 8.4 8 0 4.4-3.4 7.9-8.4 7.9H15.4Zm0 28.6v-16.3h14.5c5.4 0 8.9 3.6 8.9 8.2s-3.5 8.1-8.9 8.1H15.4Zm90.779-71.4c0-4.2-3.4-7.6-7.5-7.6-4.2 0-7.6 3.4-7.6 7.6 0 4.1 3.4 7.5 7.6 7.5 4.1 0 7.5-3.4 7.5-7.5Zm23.5 0c0-4.2-3.4-7.6-7.5-7.6-4.2 0-7.6 3.4-7.6 7.6 0 4.1 3.4 7.5 7.6 7.5 4.1 0 7.5-3.4 7.5-7.5Zm9.6 56.7v-43h-14.5v43.2c0 9.4-5.8 15-14.4 15-8.6 0-14.4-5.6-14.4-15v-43.2h-14.5v43c0 17.7 11.9 29.2 28.9 29.2 16.8 0 28.9-11.5 28.9-29.2Zm32.973 28h14.5v-29.9h3.6l24.3 29.9h17.5l-25.5-31.5c9.4-3 14.6-9 14.6-18.5 0-11.8-8.5-21-21.8-21h-27.2v71Zm14.5-42.3v-15.4h11c5.4 0 9.1 2.8 9.1 7.7 0 4.8-3.7 7.7-9.1 7.7h-11Zm135.981 6.8c0-20.3-16.4-36.7-36.7-36.7-20.3 0-36.7 16.4-36.7 36.7 0 20.3 16.4 36.7 36.7 36.7 20.3 0 36.7-16.4 36.7-36.7Zm-58.8 0c0-12.4 9.7-22.7 22.1-22.7 12.4 0 22.1 10.3 22.1 22.7 0 12.4-9.7 22.7-22.1 22.7-12.4 0-22.1-10.3-22.1-22.7Z" fill="#fff"/></svg>