<svg width="323" height="94" viewBox="0 0 323 94" fill="none" xmlns="http://www.w3.org/2000/svg">
<path d="M0.9 92.3282H30.9C43.5 92.3282 52.9 83.2282 52.9 71.4282C52.9 63.4282 48.6 57.6282 42.4 54.6282C45.8 51.6282 48 47.3282 48 41.9282C48 30.6282 38.8 21.3282 26.9 21.3282H0.9V92.3282ZM15.4 50.4282V34.5282H25.5C30.5 34.5282 33.9 38.2282 33.9 42.5282C33.9 46.9282 30.5 50.4282 25.5 50.4282H15.4ZM15.4 79.0282V62.7282H29.9C35.3 62.7282 38.8 66.3282 38.8 70.9282C38.8 75.5282 35.3 79.0282 29.9 79.0282H15.4ZM106.179 7.62824C106.179 3.42824 102.779 0.0282433 98.6789 0.0282433C94.4789 0.0282433 91.0789 3.42824 91.0789 7.62824C91.0789 11.7282 94.4789 15.1282 98.6789 15.1282C102.779 15.1282 106.179 11.7282 106.179 7.62824ZM129.679 7.62824C129.679 3.42824 126.279 0.0282433 122.179 0.0282433C117.979 0.0282433 114.579 3.42824 114.579 7.62824C114.579 11.7282 117.979 15.1282 122.179 15.1282C126.279 15.1282 129.679 11.7282 129.679 7.62824ZM139.279 64.3282V21.3282H124.779V64.5282C124.779 73.9282 118.979 79.5282 110.379 79.5282C101.779 79.5282 95.9789 73.9282 95.9789 64.5282V21.3282H81.4789V64.3282C81.4789 82.0282 93.3789 93.5282 110.379 93.5282C127.179 93.5282 139.279 82.0282 139.279 64.3282ZM172.252 92.3282H186.752V62.4282H190.352L214.652 92.3282H232.152L206.652 60.8282C216.052 57.8282 221.252 51.8282 221.252 42.3282C221.252 30.5282 212.752 21.3282 199.452 21.3282H172.252V92.3282ZM186.752 50.0282V34.6282H197.752C203.152 34.6282 206.852 37.4282 206.852 42.3282C206.852 47.1282 203.152 50.0282 197.752 50.0282H186.752ZM322.733 56.8282C322.733 36.5282 306.333 20.1282 286.033 20.1282C265.733 20.1282 249.333 36.5282 249.333 56.8282C249.333 77.1282 265.733 93.5282 286.033 93.5282C306.333 93.5282 322.733 77.1282 322.733 56.8282ZM263.933 56.8282C263.933 44.4282 273.633 34.1282 286.033 34.1282C298.433 34.1282 308.133 44.4282 308.133 56.8282C308.133 69.2282 298.433 79.5282 286.033 79.5282C273.633 79.5282 263.933 69.2282 263.933 56.8282Z" fill="white"/>
</svg>
