<svg width="51" height="51" viewBox="0 0 51 51" fill="none" xmlns="http://www.w3.org/2000/svg">
<ellipse cx="25.4694" cy="25.3463" rx="25.279" ry="25" fill="#EB5E40"/>
<g clip-path="url(#clip0_2_65)">
<path d="M14.9688 24.3917V26.3009C14.9688 27.2674 14.1852 28.0509 13.2188 28.0509C12.2523 28.0509 11.4688 27.2674 11.4688 26.3009V24.3917C11.4688 23.4252 12.2523 22.6417 13.2188 22.6417C14.1852 22.6417 14.9688 23.4252 14.9688 24.3917Z" fill="white"/>
<path d="M35.9695 24.4415C35.969 24.4249 35.9688 24.4083 35.9688 24.3917C35.9688 23.4252 36.7523 22.6417 37.7188 22.6417C38.6852 22.6417 39.4688 23.4252 39.4688 24.3917C39.4688 24.4084 39.4685 24.425 39.468 24.4415H39.4688V26.3506H39.468C39.4418 27.2941 38.6686 28.0508 37.7188 28.0508C36.7689 28.0508 35.9958 27.2941 35.9695 26.3506H35.9688V24.4414H35.9695V24.4415Z" fill="white"/>
<path d="M21.0142 30.1191V32.0281C21.0142 32.9946 20.2307 33.7781 19.2642 33.7781C18.2976 33.7781 17.5142 32.9946 17.5142 32.0281V30.119C17.5142 29.1526 18.2977 28.369 19.2642 28.369C20.2307 28.369 21.0142 29.1526 21.0142 30.119V30.1191ZM21.0142 18.6645V24.9088H21.0138C20.9926 25.8569 20.2174 26.6191 19.2642 26.6191C18.311 26.6191 17.5358 25.8569 17.5147 24.9088H17.5142V18.6645C17.5142 17.698 18.2977 16.9145 19.2642 16.9145C20.2307 16.9145 21.0142 17.698 21.0142 18.6645Z" fill="white"/>
<path d="M29.9233 20.5736C29.9233 21.5401 30.7068 22.3236 31.6733 22.3236C32.6399 22.3236 33.4233 21.5401 33.4233 20.5736V18.6645C33.4233 17.698 32.6398 16.9145 31.6733 16.9145C30.7068 16.9145 29.9233 17.698 29.9233 18.6645V20.5736Z" fill="white"/>
<path d="M23.7188 15.0055C23.7188 15.9719 24.5023 16.7555 25.4688 16.7555C26.4352 16.7555 27.2188 15.9719 27.2188 15.0055V13.0963C27.2188 12.1298 26.4352 11.3463 25.4688 11.3463C24.5023 11.3463 23.7188 12.1298 23.7188 13.0963V15.0055ZM23.7188 35.6872C23.7188 34.7207 24.5023 33.9372 25.4688 33.9372C26.4352 33.9372 27.2188 34.7207 27.2188 35.6872V37.5963C27.2188 38.5628 26.4352 39.3463 25.4688 39.3463C24.5023 39.3463 23.7188 38.5628 23.7188 37.5963V35.6872Z" fill="white"/>
<path d="M29.9233 25.8235C29.9233 24.8571 30.7068 24.0735 31.6733 24.0735C32.6399 24.0735 33.4233 24.8571 33.4233 25.8235V32.0281C33.4233 32.9946 32.6398 33.7781 31.6733 33.7781C30.7068 33.7781 29.9233 32.9946 29.9233 32.0281V25.8235Z" fill="white"/>
<path d="M27.2188 20.2554V30.4372C27.2188 31.4037 26.4352 32.1872 25.4688 32.1872C24.5023 32.1872 23.7188 31.4037 23.7188 30.4372V20.2554C23.7188 19.2889 24.5023 18.5054 25.4688 18.5054C26.4352 18.5054 27.2188 19.2889 27.2188 20.2554Z" fill="white"/>
</g>
<defs>
<clipPath id="clip0_2_65">
<rect width="28" height="28" fill="white" transform="translate(11.4688 11.3463)"/>
</clipPath>
</defs>
</svg>
