<svg width="580" height="43" viewBox="0 0 580 43" fill="none" xmlns="http://www.w3.org/2000/svg">
<mask id="path-1-inside-1_2_7" fill="white">
<path d="M0.832428 0.130747H579.168V42.7007H0.832428V0.130747Z"/>
</mask>
<path d="M0.832428 0.130747V-0.869253H-0.167572V0.130747H0.832428ZM579.168 0.130747H580.168V-0.869253H579.168V0.130747ZM579.168 42.7007V43.7007H580.168V42.7007H579.168ZM0.832428 42.7007H-0.167572V43.7007H0.832428V42.7007ZM0.832428 1.13075H579.168V-0.869253H0.832428V1.13075ZM578.168 0.130747V42.7007H580.168V0.130747H578.168ZM579.168 41.7007H0.832428V43.7007H579.168V41.7007ZM1.83243 42.7007V0.130747H-0.167572V42.7007H1.83243Z" fill="white" mask="url(#path-1-inside-1_2_7)"/>
<path d="M0.832428 0.130747H374.96V42.7007H0.832428V0.130747Z" fill="white"/>
<path d="M155.893 28.627H162.523V26.947H157.648V17.977H155.893V28.627ZM173.875 23.302C173.875 20.227 171.415 17.797 168.37 17.797C165.31 17.797 162.865 20.227 162.865 23.302C162.865 26.377 165.31 28.807 168.37 28.807C171.415 28.807 173.875 26.377 173.875 23.302ZM164.635 23.302C164.635 21.187 166.255 19.492 168.37 19.492C170.47 19.492 172.09 21.187 172.09 23.302C172.09 25.417 170.47 27.112 168.37 27.112C166.255 27.112 164.635 25.417 164.635 23.302ZM174.175 28.627H175.99L177.19 25.837H181.96L183.175 28.627H185.005L180.355 17.977H178.825L174.175 28.627ZM177.865 24.277L179.575 20.332L181.285 24.277H177.865ZM186.377 28.627H189.647C192.812 28.627 195.227 26.317 195.227 23.302C195.227 20.287 192.812 17.977 189.647 17.977H186.377V28.627ZM188.132 26.992V19.612H189.647C191.927 19.612 193.442 21.217 193.442 23.302C193.442 25.387 191.927 26.992 189.647 26.992H188.132ZM197.158 28.627H198.913V17.977H197.158V28.627ZM210.808 28.627V17.977H209.038V25.612L203.053 17.977H201.523V28.627H203.278V20.962L209.278 28.627H210.808ZM212.743 23.302C212.743 26.407 215.128 28.807 218.308 28.807C221.443 28.807 223.993 26.527 223.603 22.402H218.158V24.052H221.803C221.578 25.867 220.288 27.112 218.308 27.112C216.073 27.112 214.513 25.447 214.513 23.302C214.513 21.157 216.073 19.492 218.293 19.492C219.628 19.492 220.783 20.152 221.338 21.127H223.333C222.673 19.252 220.678 17.797 218.293 17.797C215.128 17.797 212.743 20.197 212.743 23.302ZM227.556 27.442C227.556 26.737 226.971 26.137 226.251 26.137C225.546 26.137 224.961 26.737 224.961 27.442C224.961 28.162 225.546 28.747 226.251 28.747C226.971 28.747 227.556 28.162 227.556 27.442ZM231.526 27.442C231.526 26.737 230.941 26.137 230.221 26.137C229.516 26.137 228.931 26.737 228.931 27.442C228.931 28.162 229.516 28.747 230.221 28.747C230.941 28.747 231.526 28.162 231.526 27.442ZM235.495 27.442C235.495 26.737 234.91 26.137 234.19 26.137C233.485 26.137 232.9 26.737 232.9 27.442C232.9 28.162 233.485 28.747 234.19 28.747C234.91 28.747 235.495 28.162 235.495 27.442Z" fill="#FB5021"/>
<rect x="395.634" y="2.04477" width="14.9011" height="38.9423" fill="white"/>
<rect x="425.438" y="2.04477" width="14.9011" height="38.9423" fill="white"/>
<rect x="485.033" y="2.04477" width="14.9011" height="38.9423" fill="white"/>
<rect x="544.64" y="2.04472" width="14.9011" height="38.9423" fill="white"/>
<rect x="455.229" y="2.04477" width="14.9011" height="38.9423" fill="white"/>
<rect x="514.836" y="2.04472" width="14.9011" height="38.9423" fill="white"/>
</svg>
