<svg width="52" height="51" viewBox="0 0 52 51" fill="none" xmlns="http://www.w3.org/2000/svg">
<ellipse cx="25.9118" cy="25.3463" rx="25.279" ry="25" fill="#EB5E40"/>
<g clip-path="url(#clip0_2_59)">
<path d="M8.84963 22.9446C8.7681 22.9446 8.70118 23.0101 8.69091 23.1005L8.31526 26.5239L8.69091 29.8716C8.70118 29.9604 8.7681 30.026 8.84963 30.026C8.92977 30.026 8.99531 29.962 9.00834 29.8716L9.43354 26.5239L9.00834 23.0989C8.99511 23.0087 8.92957 22.9446 8.84963 22.9446ZM7.43997 24.2567C7.35983 24.2567 7.29725 24.3179 7.28698 24.4051L7.00746 26.5239L7.28698 28.6049C7.29725 28.6919 7.35983 28.7533 7.43997 28.7533C7.51716 28.7533 7.57973 28.6919 7.59276 28.6049L7.92183 26.5239L7.59276 24.4051C7.57973 24.3177 7.51716 24.2567 7.43997 24.2567ZM10.3465 22.2734C10.2461 22.2734 10.1659 22.352 10.1556 22.4611L9.80032 26.5239L10.1556 30.4366C10.1659 30.5459 10.2461 30.6243 10.3465 30.6243C10.4454 30.6243 10.5256 30.5459 10.5388 30.4381L10.9421 26.5239L10.5388 22.4611C10.5256 22.352 10.4454 22.2734 10.3465 22.2734ZM11.8565 22.1307C11.7384 22.1307 11.6425 22.2252 11.6336 22.3506L11.2972 26.5241L11.6336 30.5621C11.6423 30.6873 11.7384 30.7816 11.8565 30.7816C11.9745 30.7816 12.0705 30.6871 12.0807 30.5621L12.4625 26.5241L12.0807 22.3492C12.0706 22.2252 11.9745 22.1307 11.8565 22.1307ZM13.6345 22.6504C13.6258 22.5077 13.5152 22.3999 13.3796 22.3999C13.2412 22.3999 13.1321 22.5077 13.1234 22.6534L12.806 26.5239L13.1234 30.5953C13.1321 30.7392 13.2414 30.8487 13.3796 30.8487C13.5152 30.8487 13.6258 30.7392 13.6345 30.5953L13.9957 26.5239L13.6345 22.6504ZM14.9146 19.9405C14.7603 19.9405 14.6335 20.0657 14.6262 20.2273L14.3278 26.5268L14.6262 30.5967C14.6335 30.7556 14.7603 30.8821 14.9146 30.8821C15.066 30.8821 15.1928 30.755 15.2028 30.5951V30.5967L15.5392 26.5268L15.2028 20.2259C15.1926 20.0659 15.066 19.9405 14.9146 19.9405ZM16.4376 18.4886C16.2643 18.4886 16.1231 18.6299 16.1158 18.8076L15.8377 26.5487L16.1158 30.5939C16.1231 30.7702 16.2643 30.9111 16.4376 30.9111C16.608 30.9111 16.7507 30.77 16.758 30.5923V30.5939L17.074 26.5487L16.758 18.8076C16.7507 18.6299 16.6082 18.4886 16.4376 18.4886ZM18.0206 17.7898C17.8283 17.7898 17.6725 17.9442 17.6668 18.1422L17.4061 26.5282L17.6668 30.5309C17.6725 30.726 17.8285 30.8805 18.0206 30.8805C18.2099 30.8805 18.3656 30.7262 18.3729 30.5297V30.5329L18.6655 26.5282L18.3729 18.1422C18.3656 17.9442 18.2099 17.7898 18.0206 17.7898ZM19.9776 17.8597C19.9703 17.6441 19.8013 17.4751 19.5917 17.4751C19.3805 17.4751 19.2101 17.6441 19.2058 17.8597L18.9642 26.5284L19.2058 30.508C19.2071 30.6096 19.2483 30.7066 19.3205 30.778C19.3927 30.8494 19.4901 30.8896 19.5917 30.8898C19.8013 30.8898 19.9703 30.721 19.9776 30.5055L20.2485 26.5286L19.9776 17.8597ZM19.9776 30.5051V30.508V30.5051ZM21.1747 17.6645C20.9461 17.6645 20.7611 17.848 20.7568 18.081L20.5353 26.5282L20.7568 30.4701C20.7611 30.7017 20.9461 30.8855 21.1747 30.8855C21.4033 30.8855 21.5868 30.7017 21.5942 30.4676V30.4717L21.8417 26.5284L21.5942 18.0812C21.5866 17.848 21.4033 17.6645 21.1747 17.6645ZM22.7707 17.9412C22.5231 17.9412 22.3251 18.1392 22.3192 18.3911L22.1183 26.5294L22.3204 30.4453C22.3247 30.6944 22.5227 30.8924 22.7703 30.8924C23.0178 30.8924 23.2174 30.6944 23.2217 30.4425V30.4456L23.4488 26.53L23.2217 18.3901C23.221 18.2709 23.1732 18.1568 23.0887 18.0727C23.0042 17.9886 22.8899 17.9414 22.7707 17.9412ZM24.6462 16.4441C24.5673 16.3914 24.4746 16.363 24.3797 16.3626C24.2836 16.3626 24.1934 16.3916 24.1176 16.4412C24.0504 16.485 23.995 16.5448 23.9564 16.6151C23.9178 16.6855 23.8971 16.7642 23.8961 16.8444L23.8931 16.9362L23.7125 26.5278C23.7125 26.5335 23.8959 30.4204 23.8959 30.4204V30.4362C23.9018 30.5457 23.9425 30.6458 24.0096 30.7246C24.0544 30.7795 24.1108 30.8238 24.1747 30.8544C24.2387 30.8849 24.3086 30.9009 24.3795 30.9012C24.5106 30.9012 24.63 30.8458 24.7173 30.7583C24.8045 30.6709 24.86 30.5515 24.8629 30.4188L24.8833 30.0329L25.0669 26.5294L24.8629 16.8444C24.8614 16.7653 24.8409 16.6876 24.8032 16.6179C24.7655 16.5483 24.7117 16.4887 24.6462 16.4441ZM24.8631 30.4206V30.4188V30.4206V30.4178V30.4188V30.4206ZM26.2434 15.5268C26.1531 15.4715 26.0478 15.446 25.9423 15.4539C25.8368 15.4618 25.7364 15.5026 25.6553 15.5706C25.5965 15.6186 25.5489 15.679 25.5159 15.7474C25.483 15.8158 25.4655 15.8907 25.4646 15.9666L25.4632 16.0205L25.2524 26.5312L25.3602 28.4738L25.465 30.3653C25.468 30.6448 25.6995 30.8766 25.9802 30.8766C26.2615 30.8766 26.4931 30.6448 26.4972 30.3612V30.3653L26.7258 26.5312L26.4972 15.9666C26.4956 15.8778 26.4714 15.7909 26.427 15.714C26.3826 15.637 26.3194 15.5726 26.2434 15.5268ZM40.4445 21.5308C39.8022 21.5308 39.1893 21.6603 38.6302 21.8948C38.2573 17.669 34.713 14.3546 30.3912 14.3546C29.365 14.3558 28.3478 14.5453 27.3901 14.9139C27.0362 15.0507 26.943 15.192 26.9388 15.4658V30.3493C26.943 30.6361 27.1655 30.859 27.4454 30.8866C27.457 30.8882 40.4447 30.8866 40.4447 30.8866C43.0353 30.8866 45.1339 28.8116 45.1339 26.221C45.1337 23.6305 43.0351 21.5308 40.4445 21.5308ZM10.7512 33.7083C10.2022 33.579 10.0538 33.5089 10.0538 33.2922C10.0538 33.1394 10.1776 32.9805 10.5489 32.9805C10.8663 32.9805 11.1138 33.1084 11.3367 33.3376L11.8377 32.8526C11.51 32.5107 11.1138 32.3064 10.5737 32.3064C9.89093 32.3064 9.33603 32.6937 9.33603 33.3228C9.33603 34.0056 9.78156 34.2095 10.421 34.3564C11.0747 34.5048 11.1928 34.6055 11.1928 34.8284C11.1928 35.0905 10.9991 35.2054 10.5883 35.2054C10.2563 35.2054 9.94482 35.0905 9.70162 34.8078L9.20219 35.2536C9.46434 35.6395 9.96969 35.8827 10.5491 35.8827C11.4942 35.8827 11.9121 35.4385 11.9121 34.7786C11.9119 34.0245 11.3018 33.8384 10.7512 33.7083ZM13.9418 32.3064C12.9967 32.3064 12.4376 33.0403 12.4376 34.0948C12.4376 35.1507 12.9969 35.8831 13.9418 35.8831C14.8884 35.8831 15.4474 35.1507 15.4474 34.0948C15.4474 33.0403 14.8884 32.3064 13.9418 32.3064ZM13.9418 35.1955C13.3826 35.1955 13.1497 34.7137 13.1497 34.0948C13.1497 33.476 13.3826 32.9955 13.9418 32.9955C14.5025 32.9955 14.7354 33.4762 14.7354 34.0948C14.7354 34.7131 14.5025 35.1955 13.9418 35.1955ZM18.2464 34.3086C18.2464 34.8619 17.974 35.2054 17.5344 35.2054C17.0932 35.2054 16.8251 34.853 16.8251 34.2981V32.3612H16.132V34.3082C16.132 35.3187 16.697 35.8825 17.5344 35.8825C18.4154 35.8825 18.9397 35.3029 18.9397 34.2983V32.3614H18.2466L18.2464 34.3086ZM21.9317 33.8281C21.9317 34.0204 21.9404 34.4573 21.9404 34.5854C21.8968 34.4965 21.7833 34.3234 21.6986 34.1939L20.4693 32.362H19.8055V35.829H20.4899V34.3031C20.4899 34.1096 20.4796 33.6738 20.4796 33.5458C20.5248 33.6345 20.6383 33.808 20.7214 33.9375L21.9957 35.829H22.6145V32.362H21.9315V33.8281H21.9317ZM24.5909 32.3616H23.5076V35.8288H24.5414C25.4328 35.8288 26.3152 35.3134 26.3152 34.0942C26.3152 32.8263 25.5811 32.3616 24.5909 32.3616ZM24.5414 35.1547H24.1995V33.0362H24.5678C25.3002 33.0362 25.6032 33.3867 25.6032 34.0946C25.6028 34.7293 25.2694 35.1547 24.5414 35.1547ZM28.46 32.9951C28.7715 32.9951 28.9697 33.1349 29.0951 33.3706L29.737 33.0752C29.5189 32.6238 29.1243 32.3062 28.4701 32.3062C27.5632 32.3062 26.9298 33.0403 26.9298 34.0944C26.9298 35.1898 27.5382 35.8829 28.4454 35.8829C29.0747 35.8829 29.4895 35.5915 29.7285 35.0992L29.1428 34.7526C28.9594 35.0601 28.7772 35.1955 28.4642 35.1955C27.9444 35.1955 27.6414 34.7178 27.6414 34.0944C27.6414 33.4509 27.9401 32.9951 28.46 32.9951ZM31.0316 32.3616H30.3383V35.8288H32.4233V35.1456H31.031V32.3614H31.0316V32.3616ZM34.2483 32.3064C33.3031 32.3064 32.7423 33.0403 32.7423 34.0948C32.7423 35.1507 33.3031 35.8831 34.2483 35.8831C35.1948 35.8831 35.7554 35.1507 35.7554 34.0948C35.7554 33.0403 35.1948 32.3064 34.2483 32.3064ZM34.2483 35.1955C33.689 35.1955 33.4559 34.7137 33.4559 34.0948C33.4559 33.476 33.689 32.9955 34.2483 32.9955C34.8089 32.9955 35.0406 33.4762 35.0406 34.0948C35.0406 34.7131 34.8089 35.1955 34.2483 35.1955ZM38.553 34.3086C38.553 34.8619 38.282 35.2054 37.841 35.2054C37.3998 35.2054 37.1315 34.853 37.1315 34.2981V32.3612H36.4386V34.3082C36.4386 35.3187 37.0034 35.8825 37.841 35.8825C38.722 35.8825 39.2475 35.3029 39.2475 34.2983V32.3614H38.553V34.3086ZM41.1986 32.3616H40.1137V35.8288H41.1473C42.0413 35.8288 42.9212 35.3134 42.9212 34.0942C42.9214 32.8263 42.1902 32.3616 41.1986 32.3616ZM41.1473 35.1547H40.8068V33.0362H41.1734C41.9059 33.0362 42.207 33.3867 42.207 34.0946C42.2076 34.7293 41.8773 35.1547 41.1473 35.1547Z" fill="white"/>
</g>
<defs>
<clipPath id="clip0_2_59">
<rect width="38.4441" height="21.99" fill="white" transform="translate(6.68945 14.3514)"/>
</clipPath>
</defs>
</svg>
