<svg width="51" height="51" viewBox="0 0 51 51" fill="none" xmlns="http://www.w3.org/2000/svg">
<ellipse cx="25.2897" cy="25.5464" rx="25.279" ry="25" fill="#EB5E40"/>
<path d="M31.4728 34.2854H19.1061C14.8204 34.2854 11.3066 30.8104 11.3066 26.572V20.1786C11.3066 15.9322 14.8204 12.4651 19.1061 12.4651H31.4728C35.7585 12.4651 39.2723 15.9322 39.2723 20.1786V26.572C39.2723 30.8104 35.7665 34.2854 31.4728 34.2854Z" fill="white"/>
<path d="M28.0615 34.1827C28.0615 34.1827 33.3522 38.6438 33.529 38.6279C33.7059 38.604 33.7059 38.3654 33.7059 38.1428C33.7059 38.0633 33.6577 33.4034 33.6577 33.4034L28.0615 34.1827Z" fill="white"/>
<path d="M31.7209 21.2358H19.1211C18.9844 21.2358 18.8799 21.1245 18.8799 20.9972V17.1087C18.8799 16.9735 18.9844 16.8701 19.1211 16.8701H31.7209C31.8496 16.8701 31.9621 16.9735 31.9621 17.1087V20.9893C31.9621 21.1245 31.8496 21.2358 31.7209 21.2358Z" fill="#EB5E40"/>
<path d="M23.1533 29.8311V20.5988C23.1533 20.4636 23.2579 20.3602 23.3946 20.3602H27.5437C27.6724 20.3602 27.785 20.4636 27.785 20.5988V29.8311C27.785 29.9662 27.6724 30.0696 27.5437 30.0696H23.3946C23.2579 30.0696 23.1533 29.9583 23.1533 29.8311Z" fill="#EB5E40"/>
<path d="M22.2656 21.2359C22.7481 21.1722 23.1983 21.6096 23.1581 22.4764C23.1501 22.5718 23.319 21.0529 23.319 21.0529L22.4104 21.0848L22.2656 21.2359Z" fill="#EB5E40"/>
<path d="M28.4899 21.0133L28.6426 21.1724C28.1602 21.1088 27.7099 21.5461 27.7501 22.4129L27.4365 22.3493L27.4606 20.8384L28.707 21.0213V21.1167" fill="#EB5E40"/>
</svg>
