<svg width="51" height="51" viewBox="0 0 51 51" fill="none" xmlns="http://www.w3.org/2000/svg">
<ellipse cx="25.6159" cy="25.5464" rx="25.279" ry="25" fill="#EB5E40"/>
<path d="M41.6167 17.0324C41.847 16.2629 41.6167 15.6965 40.5087 15.6965H36.8422C35.9084 15.6965 35.4789 16.1829 35.2486 16.7246C35.2486 16.7246 33.3811 21.2248 30.7417 24.1429C29.8889 24.9863 29.4967 25.2572 29.0299 25.2572C28.7996 25.2572 28.4447 24.9863 28.4447 24.2168V17.0324C28.4447 16.109 28.1833 15.6965 27.4114 15.6965H21.6471C21.062 15.6965 20.7134 16.1275 20.7134 16.5276C20.7134 17.4018 22.033 17.605 22.17 20.0675V25.4111C22.17 26.5808 21.9583 26.7963 21.4915 26.7963C20.2465 26.7963 17.2212 22.2776 15.4284 17.1063C15.0673 16.1028 14.7125 15.6965 13.7726 15.6965H10.1061C9.06028 15.6965 8.84863 16.1829 8.84863 16.7246C8.84863 17.685 10.0936 22.4561 14.644 28.7601C17.6756 33.0633 21.9459 35.3965 25.8303 35.3965C28.1646 35.3965 28.451 34.8794 28.451 33.9868C28.451 29.8744 28.2393 29.4865 29.4096 29.4865C29.9512 29.4865 30.8849 29.7574 33.0636 31.8321C35.5536 34.2946 35.9645 35.3965 37.3588 35.3965H41.0253C42.0711 35.3965 42.6002 34.8794 42.2952 33.8575C41.598 31.7089 36.8857 27.2888 36.6741 26.9933C36.1325 26.3038 36.2881 25.9959 36.6741 25.3803C36.6803 25.3742 41.1561 19.144 41.6167 17.0324Z" fill="white"/>
</svg>
