<svg width="51" height="51" viewBox="0 0 51 51" fill="none" xmlns="http://www.w3.org/2000/svg">
<ellipse cx="25.3981" cy="25.3463" rx="25.279" ry="25" fill="#EB5E40"/>
<path d="M15.9189 12.5466C18.271 10.8288 21.0459 9.77172 23.953 9.50745V14.2909C22.0766 14.5287 20.3059 15.2423 18.7731 16.3787C16.8703 17.8058 15.4432 19.7879 14.7561 22.0606C14.069 24.3334 14.1218 26.7648 14.9147 29.0112C15.7075 31.2575 17.2139 33.1867 19.196 34.5081C21.1781 35.8295 23.5301 36.4902 25.9086 36.3845C28.2871 36.2788 30.5599 35.4067 32.4099 33.9003C34.2598 32.3939 35.5548 30.3325 36.1362 28.0333C36.5326 26.4212 36.5855 24.7563 36.2683 23.1442L40.2854 19.92V19.8936C41.3689 22.8799 41.5275 26.1305 40.7611 29.2226C39.9154 32.526 38.0654 35.4595 35.4226 37.6002C32.7799 39.7408 29.5292 41.0094 26.1465 41.1679C22.7637 41.3265 19.381 40.4015 16.5796 38.4987C13.7519 36.5959 11.6112 33.8474 10.4748 30.6497C9.33842 27.4519 9.25913 23.9634 10.237 20.7128C11.1884 17.4358 13.1969 14.5816 15.9189 12.5466Z" fill="white"/>
<path d="M37.2456 14.793L37.2721 14.8459L34.5764 19.1007C33.5986 17.6472 32.3036 16.458 30.7708 15.5858V25.2848C30.7708 28.2712 28.3659 30.6761 25.3795 30.6761C22.3932 30.6761 19.9883 28.2712 19.9883 25.2848C19.9883 22.2985 22.3932 19.8936 25.3795 19.8936C26.4895 19.8936 27.5202 20.2371 28.3923 20.8185V9.71887C31.8808 10.406 34.9728 12.2295 37.2456 14.793Z" fill="white"/>
</svg>
